<svg version="1.1" id="Pauls" xmlns="http://www.w3.org/2000/svg" xmlns:xlink="http://www.w3.org/1999/xlink" x="0px" y="0px"
	 viewBox="0 0 56 56" style="enable-background:new 0 0 56 56;" xml:space="preserve">
<style type="text/css">
	.st0{fill:url(#SVGID_1_);}
	.st1{display:none;fill:url(#SVGID_00000180342239177609557980000017895832104254639766_);}
	.st2{fill:#FFB600;}
	.st3{fill:#FFFFFF;}
</style>
<g>
	<linearGradient id="SVGID_1_" gradientUnits="userSpaceOnUse" x1="-8.2366" y1="42.447" x2="29.9635" y2="4.2469">
		<stop  offset="0" style="stop-color:#39D2FF"/>
		<stop  offset="0.1501" style="stop-color:#38CEFE"/>
		<stop  offset="0.2931" style="stop-color:#35C3FA"/>
		<stop  offset="0.4327" style="stop-color:#2FB0F3"/>
		<stop  offset="0.5468" style="stop-color:#299AEB"/>
		<stop  offset="0.5827" style="stop-color:#2692EC"/>
		<stop  offset="0.7635" style="stop-color:#1A6CF1"/>
		<stop  offset="0.909" style="stop-color:#1355F4"/>
		<stop  offset="1" style="stop-color:#104CF5"/>
	</linearGradient>
	<path class="st0" d="M36.7,17.6c0,2.3-0.4,4.4-1.2,6.4s-1.9,3.6-3.3,5.1c-1.8,1.8-3.9,3.1-6.3,4c-2.4,0.9-5.5,1.3-9.2,1.3H9.8v19.2
		H3V2h14c3.1,0,5.7,0.3,7.9,0.8s4.1,1.3,5.7,2.4c2,1.3,3.5,3,4.6,4.9S36.7,14.6,36.7,17.6z M29.6,17.8c0-1.8-0.3-3.3-0.9-4.6
		c-0.6-1.3-1.6-2.4-2.8-3.2c-1.1-0.7-2.4-1.2-3.8-1.5c-1.4-0.3-3.2-0.5-5.4-0.5H9.8v20.6h5.8c2.8,0,5-0.2,6.8-0.7
		c1.7-0.5,3.1-1.3,4.2-2.4c1.1-1.1,1.9-2.3,2.3-3.5C29.4,20.7,29.6,19.3,29.6,17.8z"/>
	<path d="M23.1,53.6h-1.9v-1.2c-0.2,0.1-0.4,0.3-0.7,0.5c-0.3,0.2-0.6,0.4-0.8,0.5c-0.3,0.2-0.7,0.3-1.1,0.4
		c-0.4,0.1-0.9,0.2-1.4,0.2c-1,0-1.8-0.3-2.5-1c-0.7-0.7-1-1.5-1-2.5c0-0.8,0.2-1.5,0.5-2c0.4-0.5,0.9-0.9,1.5-1.2
		c0.7-0.3,1.5-0.5,2.4-0.6s2-0.2,3-0.2V46c0-0.4-0.1-0.8-0.2-1.1c-0.1-0.3-0.4-0.5-0.6-0.7c-0.3-0.2-0.6-0.3-1-0.3
		c-0.4-0.1-0.8-0.1-1.2-0.1c-0.5,0-1,0.1-1.6,0.2c-0.6,0.1-1.2,0.3-1.9,0.6h-0.1v-1.9c0.4-0.1,0.9-0.2,1.6-0.3s1.4-0.2,2-0.2
		c0.8,0,1.5,0.1,2,0.2c0.6,0.1,1.1,0.3,1.5,0.7c0.4,0.3,0.7,0.7,1,1.2s0.3,1.1,0.3,1.8V53.6z M21.3,50.9v-3.1c-0.6,0-1.2,0.1-2,0.1
		c-0.8,0.1-1.4,0.2-1.8,0.3c-0.5,0.2-1,0.4-1.3,0.7c-0.3,0.3-0.5,0.8-0.5,1.3c0,0.6,0.2,1.1,0.6,1.4c0.4,0.3,1,0.5,1.8,0.5
		c0.7,0,1.3-0.1,1.8-0.4C20.3,51.6,20.8,51.3,21.3,50.9z"/>
	<path d="M35.9,53.6H34v-1.2c-0.6,0.5-1.2,0.9-1.8,1.1c-0.6,0.3-1.2,0.4-1.9,0.4c-1.2,0-2.1-0.4-2.7-1.1c-0.6-0.7-1-1.8-1-3.1v-7.2
		h1.9v6.3c0,0.6,0,1,0.1,1.4c0.1,0.4,0.2,0.7,0.3,1c0.2,0.3,0.4,0.5,0.7,0.6c0.3,0.1,0.7,0.2,1.2,0.2c0.5,0,1-0.1,1.6-0.4
		c0.6-0.3,1.1-0.6,1.6-1v-8.3h1.9V53.6z"/>
	<path d="M41.5,53.6h-1.9V38.2h1.9V53.6z"/>
	<path d="M53,50.4c0,1-0.4,1.8-1.3,2.5c-0.8,0.6-2,1-3.4,1c-0.8,0-1.6-0.1-2.3-0.3c-0.7-0.2-1.3-0.4-1.7-0.6v-2.1h0.1
		c0.6,0.4,1.2,0.8,2,1.1s1.4,0.4,2.1,0.4c0.8,0,1.5-0.1,1.9-0.4c0.5-0.3,0.7-0.7,0.7-1.2c0-0.4-0.1-0.8-0.4-1
		c-0.3-0.2-0.7-0.4-1.4-0.6c-0.3-0.1-0.6-0.1-1-0.2c-0.4-0.1-0.8-0.2-1.2-0.3c-1-0.3-1.7-0.6-2.1-1.1s-0.6-1.1-0.6-1.8
		c0-0.5,0.1-0.9,0.3-1.3c0.2-0.4,0.5-0.8,0.9-1.1c0.4-0.3,0.8-0.6,1.4-0.7s1.2-0.3,1.9-0.3c0.7,0,1.3,0.1,2,0.2
		c0.7,0.2,1.2,0.4,1.7,0.6v2h-0.1c-0.5-0.4-1.1-0.6-1.7-0.9c-0.7-0.2-1.3-0.4-2-0.4c-0.7,0-1.3,0.1-1.7,0.4
		c-0.5,0.3-0.7,0.6-0.7,1.2c0,0.5,0.1,0.8,0.4,1c0.3,0.2,0.7,0.4,1.3,0.6c0.3,0.1,0.7,0.2,1.2,0.2c0.4,0.1,0.8,0.2,1.1,0.2
		c0.9,0.2,1.5,0.5,2,1C52.8,49,53,49.6,53,50.4z"/>
	
		<linearGradient id="SVGID_00000157995323116612830120000014695382778807485611_" gradientUnits="userSpaceOnUse" x1="17.474" y1="29.0952" x2="52.1451" y2="29.0952" gradientTransform="matrix(1 0 0 -1 0 58)">
		<stop  offset="0" style="stop-color:#39D2FF"/>
		<stop  offset="0.1501" style="stop-color:#38CEFE"/>
		<stop  offset="0.2931" style="stop-color:#35C3FA"/>
		<stop  offset="0.4327" style="stop-color:#2FB0F3"/>
		<stop  offset="0.5468" style="stop-color:#299AEB"/>
		<stop  offset="0.5827" style="stop-color:#2692EC"/>
		<stop  offset="0.7635" style="stop-color:#1A6CF1"/>
		<stop  offset="0.909" style="stop-color:#1355F4"/>
		<stop  offset="1" style="stop-color:#104CF5"/>
	</linearGradient>
	<path style="display:none;fill:url(#SVGID_00000157995323116612830120000014695382778807485611_);" d="M52.1,25.1
		c0,0.4,0,0.8-0.1,1.3c0,0.1,0,0.2-0.1,0.3c0,0.2-0.1,0.4-0.2,0.6c0,0.1-0.1,0.2-0.1,0.3c0,0.1-0.1,0.2-0.1,0.3
		c-0.1,0.3-0.3,0.6-0.4,0.8c-0.2,0.3-0.4,0.7-0.7,1c-1.2,1.4-5.3,3.8-6.9,4.8l-3.4,2.1c-2.5,1.5-4.8,2.6-7.8,2.7c-0.1,0-0.3,0-0.4,0
		c-0.2,0-0.4,0-0.6,0c-5-0.2-9.3-2.9-11.8-6.9c-1.1-1.8-1.9-3.9-2.2-6.2c0.5,3.1,3.2,5.4,6.4,5.4c1.1,0,2.2-0.3,3.1-0.8c0,0,0,0,0,0
		l0.3-0.2l1.3-0.8l1.7-1v0l0.2-0.1l15.3-9.2l1.2-0.7l0.1,0c0,0,0,0,0,0c0.3,0.1,0.7,0.2,1,0.3c0.7,0.3,1.4,0.8,2,1.3
		c0.2,0.2,0.4,0.5,0.6,0.7c0.2,0.2,0.3,0.4,0.5,0.7C51.8,22.7,52.1,23.9,52.1,25.1z"/>
</g>
<circle class="st2" cx="46.4" cy="29.8" r="6.8"/>
<g>
	<path class="st3" d="M44.2,30.9l-0.6,1.9h-0.8l2.1-6.2h1l2.1,6.2H47l-0.7-1.9H44.2z M46.2,30.3l-0.6-1.8c-0.1-0.4-0.2-0.8-0.3-1.1
		h0c-0.1,0.4-0.2,0.7-0.3,1.1l-0.6,1.8H46.2z"/>
	<path class="st3" d="M49.6,26.7v6.2h-0.8v-6.2H49.6z"/>
</g>
</svg>
